# xmcd
#
# Track frame offsets: 
#        150
#        14575
#        26125
#        45350
#        62525
#        81325
#        95487
#        111325
#        125087
#        139487
#        153025
#        167650
#        170250
#
# Disc length: 2510 seconds
#
# Revision: 0
# Processed by: cddbd v1.5PL3 Copyright (c) Steve Scherf et al.
# Submitted via: ExactAudioCopy v0.95a2
#
DISCID=aa09cc0d
DTITLE=SX-10 - MAD DOG AMERICAN
DYEAR=2000
DGENRE=Hip-Hop
TTITLE0=HEAT OF A REBEL featuring DJ Muggs of Cypress Hill and Ray of 
TTITLE0=Downset
TTITLE1=CAUGHT UP IN THE SYSTEM
TTITLE2=RHYME IN THE CHAMBER featuring Everlast and Mellow Man Ace
TTITLE3=GOIN CRAZY featuring Eric Bobo of Cypress Hill
TTITLE4=SUPERSTAR TRIP
TTITLE5=TEQUILA featuring Kottonmouth Kings, Saint Dog and Mellow Man 
TTITLE5=Ace
TTITLE6=ZONE featuring Mellow Man Ace and Rude Dog
TTITLE7=GOTTA GET AWAY
TTITLE8=HAD ENOUGH
TTITLE9=PUNK ASS
TTITLE10=IM NOT JESUS
TTITLE11=GOOD OLE REBEL
TTITLE12=SLY STICK AND WICKED by Mellow Man Ace featuring Sen Dog (Bon
TTITLE12=us Track)
EXTD=
EXTT0=
EXTT1=
EXTT2=
EXTT3=
EXTT4=
EXTT5=
EXTT6=
EXTT7=
EXTT8=
EXTT9=
EXTT10=
EXTT11=
EXTT12=
PLAYORDER=
